<svg preserveAspectRatio="none" width="100%" height="100%" overflow="visible" style="display: block;" viewBox="0 0 21 28.5" fill="none" xmlns="http://www.w3.org/2000/svg">
<g id="Container">
<path id="Icon" d="M10.5 18C9.25 18 8.1875 17.5625 7.3125 16.6875C6.4375 15.8125 6 14.75 6 13.5V4.5C6 3.25 6.4375 2.1875 7.3125 1.3125C8.1875 0.4375 9.25 0 10.5 0C11.75 0 12.8125 0.4375 13.6875 1.3125C14.5625 2.1875 15 3.25 15 4.5V13.5C15 14.75 14.5625 15.8125 13.6875 16.6875C12.8125 17.5625 11.75 18 10.5 18V18M10.5 9V9V9V9V9V9V9V9V9V9V9V9M9 28.5V23.8875C6.4 23.5375 4.25 22.375 2.55 20.4C0.85 18.425 0 16.125 0 13.5H3C3 15.575 3.73125 17.3437 5.19375 18.8062C6.65625 20.2687 8.425 21 10.5 21C12.575 21 14.3437 20.2687 15.8062 18.8062C17.2687 17.3437 18 15.575 18 13.5H21C21 16.125 20.15 18.425 18.45 20.4C16.75 22.375 14.6 23.5375 12 23.8875V28.5H9V28.5M10.5 15C10.925 15 11.2813 14.8563 11.5688 14.5688C11.8563 14.2813 12 13.925 12 13.5V4.5C12 4.075 11.8563 3.71875 11.5688 3.43125C11.2813 3.14375 10.925 3 10.5 3C10.075 3 9.71875 3.14375 9.43125 3.43125C9.14375 3.71875 9 4.075 9 4.5V13.5C9 13.925 9.14375 14.2813 9.43125 14.5688C9.71875 14.8563 10.075 15 10.5 15V15" fill="black"/>
</g>
</svg>
